# xmcd CD database file
#
# Track frame offsets:
#	150
#	23828
#	44023
#	68642
#	90045
#	116046
#	135961
#	159709
#	185128
#	203137
#	230862
#
# Disc length: 3331 seconds
#
# Revision: 0
# Processed by: cddbd v1.5.2PL0 Copyright (c) Steve Scherf et al.
# Submitted via: CDex 1.51
#
DISCID=940d010b
DTITLE=Randy Napoleon - Between Friends
DYEAR=2006
DGENRE=Jazz
TTITLE0=Face The Truth
TTITLE1=No Moon At All
TTITLE2=These Foolish Things
TTITLE3=Things We Throw Away
TTITLE4=Moon And Sand
TTITLE5=Remember
TTITLE6=Today Is Tomorrow
TTITLE7=You're My Everything
TTITLE8=With A Song
TTITLE9=Time For Love
TTITLE10=In Good Spirits
EXTD=YEAR: 2006
EXTT0=
EXTT1=
EXTT2=
EXTT3=
EXTT4=
EXTT5=
EXTT6=
EXTT7=
EXTT8=
EXTT9=
EXTT10=
PLAYORDER=
